<svg version="1.0" xmlns="http://www.w3.org/2000/svg" width="346.667" height="346.667" viewBox="0 0 260 260"><path d="M0 130v130h260V0H0v130zm110.5-.9c11 28.1 20.2 51.5 20.3 52 .2.5-4.2.9-10.1.9h-10.5l-3-7.8c-1.6-4.2-3.2-8.7-3.6-10l-.7-2.2H55.1l-.7 2.2c-.4 1.3-2 5.8-3.6 10l-3 7.8H37.3c-5.9 0-10.3-.4-10.1-.9.2-.5 9.3-23.9 20.3-52l20-51.1h23l20 51.1zm99-47.6c7.4 3.7 11.9 9.3 13.6 17.1 2.5 11-2 22.1-10.9 27.1l-4.8 2.7 5 2.5c5.7 2.9 10.8 9.5 12.7 16.4 2.6 9.7-1.8 23.1-9.4 28.7-7.5 5.5-11 6-43.4 6H143V77.9l30.3.3 30.2.3 6 3z"/><path d="M69.7 121.3c-4.8 12.9-8.7 23.7-8.7 24 0 .4 8.1.7 18.1.7 14 0 18-.3 17.7-1.3C94.1 136.6 79.4 98 79 98c-.3 0-4.4 10.5-9.3 23.3zm91.3-13.8V121h16.3c19 0 23.2-1.2 26-7.3 3.4-7.2 1-14.7-5.7-17.8-3.4-1.6-6.7-1.9-20.3-1.9H161v13.5zm0 44.1v14.6l18.4-.4c16.8-.3 18.7-.5 21.3-2.4 6.1-4.5 7.9-13.7 3.8-20-3.4-5.2-8.3-6.4-26.7-6.4H161v14.6z"/></svg>